<svg width="34" height="31" viewBox="0 0 34 31" fill="none" xmlns="http://www.w3.org/2000/svg">
<path fill-rule="evenodd" clip-rule="evenodd" d="M6.8 0C4.99653 0 3.26692 0.653212 1.99167 1.81594C0.716427 2.97866 0 4.55566 0 6.2V24.8C0 26.4443 0.716427 28.0213 1.99167 29.1841C3.26692 30.3468 4.99653 31 6.8 31H27.2C29.0035 31 30.7331 30.3468 32.0083 29.1841C33.2836 28.0213 34 26.4443 34 24.8V6.2C34 4.55566 33.2836 2.97866 32.0083 1.81594C30.7331 0.653212 29.0035 0 27.2 0H6.8ZM3.4 6.2C3.4 5.37783 3.75821 4.58933 4.39584 4.00797C5.03346 3.42661 5.89826 3.1 6.8 3.1H27.2C28.1017 3.1 28.9665 3.42661 29.6042 4.00797C30.2418 4.58933 30.6 5.37783 30.6 6.2V24.8C30.6 25.6222 30.2418 26.4107 29.6042 26.992C28.9665 27.5734 28.1017 27.9 27.2 27.9H6.8C5.89826 27.9 5.03346 27.5734 4.39584 26.992C3.75821 26.4107 3.4 25.6222 3.4 24.8V6.2ZM11.9 13.95C11.9 13.5389 11.7209 13.1447 11.4021 12.854C11.0833 12.5633 10.6509 12.4 10.2 12.4C9.74913 12.4 9.31673 12.5633 8.99792 12.854C8.67911 13.1447 8.5 13.5389 8.5 13.95V23.25C8.5 23.6611 8.67911 24.0553 8.99792 24.346C9.31673 24.6367 9.74913 24.8 10.2 24.8C10.6509 24.8 11.0833 24.6367 11.4021 24.346C11.7209 24.0553 11.9 23.6611 11.9 23.25V13.95ZM12.75 8.525C12.75 9.14163 12.4813 9.733 12.0031 10.169C11.5249 10.605 10.8763 10.85 10.2 10.85C9.5237 10.85 8.8751 10.605 8.39688 10.169C7.91866 9.733 7.65 9.14163 7.65 8.525C7.65 7.90837 7.91866 7.317 8.39688 6.88098C8.8751 6.44495 9.5237 6.2 10.2 6.2C10.8763 6.2 11.5249 6.44495 12.0031 6.88098C12.4813 7.317 12.75 7.90837 12.75 8.525ZM17 12.4C17.578 12.4 18.088 12.6635 18.394 13.0634C19.2702 12.628 20.2521 12.3999 21.25 12.4C24.922 12.4 27.2 15.3853 27.2 17.935V23.25C27.2 23.6611 27.0209 24.0553 26.7021 24.346C26.3833 24.6367 25.9509 24.8 25.5 24.8C25.0491 24.8 24.6167 24.6367 24.2979 24.346C23.9791 24.0553 23.8 23.6611 23.8 23.25V17.9335C23.8 16.7431 22.678 15.4984 21.25 15.4984C20.3592 15.4984 19.3749 15.9402 18.7 16.9911V23.25C18.7 23.6611 18.5209 24.0553 18.2021 24.346C17.8833 24.6367 17.4509 24.8 17 24.8C16.5491 24.8 16.1167 24.6367 15.7979 24.346C15.4791 24.0553 15.3 23.6611 15.3 23.25V13.95C15.3 13.5389 15.4791 13.1447 15.7979 12.854C16.1167 12.5633 16.5491 12.4 17 12.4Z" fill="#272727"/>
</svg>
