<svg width="37" height="31" viewBox="0 0 37 31" fill="none" xmlns="http://www.w3.org/2000/svg">
<path fill-rule="evenodd" clip-rule="evenodd" d="M23.5242 3.54269C22.7173 3.54235 21.9204 3.72167 21.191 4.0677C20.4616 4.41374 19.8179 4.91785 19.3064 5.54365C18.7949 6.16946 18.4283 6.90134 18.2332 7.68647C18.038 8.47161 18.0191 9.2904 18.1778 10.0838C18.2324 10.3586 18.2212 10.6426 18.1451 10.9123C18.069 11.182 17.9302 11.4298 17.74 11.6352C17.5498 11.8406 17.3137 11.9978 17.0511 12.0939C16.7886 12.19 16.507 12.2222 16.2296 12.188C12.4317 11.7201 8.85143 10.1545 5.92522 7.682C5.97997 8.74827 6.34912 9.88184 7.14924 11.0686L8.34853 12.8468L6.37915 13.6882L5.9994 13.8511C6.282 14.1752 6.62112 14.5065 7.00087 14.8341C7.50852 15.2699 8.04556 15.6699 8.60817 16.0315L8.6276 16.0439L11.3635 17.707L8.50219 19.1417C8.36089 19.2126 8.21959 19.2763 8.07829 19.333C8.69355 19.8457 9.37134 20.2778 10.0954 20.6189L12.5505 21.7826L10.4945 23.5609C9.37296 24.5315 8.24432 25.2559 6.78009 25.6385C9.02578 26.838 11.5321 27.4629 14.0765 27.4575C22.5652 27.4575 29.4006 20.665 29.4006 12.342V11.421L30.1513 10.8914C31.3241 10.066 32.1524 8.95019 32.7459 7.67314H28.9308L28.4504 6.66356C28.008 5.72954 27.3105 4.94052 26.4388 4.38811C25.5672 3.83569 24.5571 3.54254 23.526 3.54269H23.5242ZM3.60082 16.4725C3.43414 16.6639 3.31049 16.8891 3.23826 17.1326C3.16604 17.3762 3.14692 17.6325 3.18221 17.8842C3.3818 19.3029 4.22784 20.525 5.16396 21.4585C5.4183 21.7117 5.6903 21.9544 5.97644 22.1864L5.84397 22.2218C4.9944 22.4344 3.84809 22.4787 1.93876 22.2927C1.5782 22.2572 1.21547 22.3338 0.899768 22.512C0.584063 22.6902 0.330652 22.9615 0.173893 23.2891C0.0171347 23.6166 -0.035388 23.9846 0.0234463 24.3431C0.0822806 24.7016 0.249626 25.0332 0.502792 25.2931C2.27042 27.1049 4.38202 28.5433 6.71301 29.5235C9.04399 30.5036 11.5471 31.0057 14.0747 31C24.1654 31 32.4421 23.1429 32.9102 13.2277C35.1886 11.3094 36.3279 8.71107 36.9425 6.35005C37.0109 6.088 37.0184 5.81373 36.9644 5.54832C36.9105 5.28291 36.7966 5.03344 36.6315 4.8191C36.4663 4.60475 36.2544 4.43124 36.0119 4.3119C35.7694 4.19256 35.5029 4.13059 35.2328 4.13073H31.0768C30.0602 2.54784 28.5746 1.32415 26.8287 0.63159C25.0829 -0.0609644 23.1645 -0.187566 21.3432 0.269575C19.5219 0.726717 17.8892 1.74462 16.6745 3.18026C15.4598 4.6159 14.7242 6.3971 14.5711 8.27359C11.3152 7.42367 8.4021 5.58278 6.23255 3.00424C6.04041 2.77643 5.794 2.60099 5.51618 2.49419C5.23837 2.38739 4.93815 2.3527 4.64339 2.39333C4.34863 2.43397 4.06889 2.54862 3.83012 2.72663C3.59135 2.90465 3.40129 3.14027 3.27759 3.41162C2.20723 5.75316 2.00235 8.45248 3.19634 11.1978L2.78304 11.375C2.38752 11.544 2.06706 11.8518 1.88172 12.2408C1.69638 12.6298 1.65888 13.0733 1.77627 13.488C2.10479 14.6428 2.84486 15.6631 3.60082 16.4725Z" fill="#272727"/>
</svg>
