<svg id="Layer_1" data-name="Layer 1" xmlns="http://www.w3.org/2000/svg" viewBox="0 0 214.99 49.98"><path d="M73.46,17.69V14.34h2.29v2.57a7.45,7.45,0,0,0,1.79,1,6.27,6.27,0,0,0,2.35.42,4.72,4.72,0,0,0,1.45-.22,3.77,3.77,0,0,0,1.23-.63,3.07,3.07,0,0,0,.85-1.06,3.29,3.29,0,0,0,.32-1.48,3.46,3.46,0,0,0-.69-2.31,4.82,4.82,0,0,0-1.74-1.26,15.76,15.76,0,0,0-2.26-.77,10.47,10.47,0,0,1-2.27-.87A5,5,0,0,1,75,8.2a4.89,4.89,0,0,1-.74-2.78,6.05,6.05,0,0,1,.26-1.92,4.7,4.7,0,0,1,1-1.73A4.92,4.92,0,0,1,77.25.49,6.58,6.58,0,0,1,80,0c.34,0,.72,0,1.13.06a7.76,7.76,0,0,1,1.27.23,8.17,8.17,0,0,1,1.38.52,6.8,6.8,0,0,1,1.4.93V4.58H82.84V2.87a7.91,7.91,0,0,0-1.27-.41A7.11,7.11,0,0,0,80,2.29a3.1,3.1,0,0,0-2.49,1,3.35,3.35,0,0,0-.82,2.26,2.29,2.29,0,0,0,.41,1.41,3.53,3.53,0,0,0,1.07.9,8.91,8.91,0,0,0,1.52.62c.57.17,1.15.36,1.74.56a14.58,14.58,0,0,1,1.74.73,5.47,5.47,0,0,1,1.52,1.1,5.1,5.1,0,0,1,1.07,1.68,6.59,6.59,0,0,1,.4,2.47,5.73,5.73,0,0,1-.47,2.35,5.42,5.42,0,0,1-1.31,1.78,5.77,5.77,0,0,1-1.92,1.13,6.93,6.93,0,0,1-2.32.39A9,9,0,0,1,78,20.37a9.52,9.52,0,0,1-1.91-.65,8.57,8.57,0,0,1-1.55-.92A4.39,4.39,0,0,1,73.46,17.69Z" fill="#231f20"/><path d="M89.42,15a5.44,5.44,0,0,1,.45-2.17A5.83,5.83,0,0,1,93,9.73a5.68,5.68,0,0,1,2.29-.46,4.28,4.28,0,0,1,1.45.23,6.19,6.19,0,0,1,1.15.51,4.68,4.68,0,0,1,.79.53c.19.18.29.29.29.35a5.29,5.29,0,0,1,0-.67A4,4,0,0,0,99,9.53h2V18.1h2.2v2.29H98.92V19.23a1.29,1.29,0,0,1-.29.32,4.32,4.32,0,0,1-.74.48,6,6,0,0,1-1.15.43,5.3,5.3,0,0,1-1.5.19A5.85,5.85,0,0,1,93,20.2,5.76,5.76,0,0,1,91.1,19a5.92,5.92,0,0,1-1.23-1.81A5.4,5.4,0,0,1,89.42,15Zm2.4,0a3.41,3.41,0,1,0,6.81,0,3.25,3.25,0,0,0-.95-2.39,3.68,3.68,0,0,0-4.91,0A3.25,3.25,0,0,0,91.82,14.94Z" fill="#231f20"/><path d="M104.65,9.53h6.43v2.29h-1.52c.5.85,1,1.7,1.45,2.54a14.76,14.76,0,0,1,1.1,2.55,15.45,15.45,0,0,1,1.08-2.55c.46-.84.93-1.69,1.44-2.54H112.9V9.53h6.64v2.29h-2.42q-1.25,2.34-2.51,4.63t-2.5,4.6q-1.27-2.31-2.52-4.61t-2.52-4.62h-2.42Z" fill="#231f20"/><path d="M121.68,15a5.44,5.44,0,0,1,.45-2.17,5.83,5.83,0,0,1,3.08-3.07,5.71,5.71,0,0,1,2.29-.46A4.28,4.28,0,0,1,129,9.5a6.62,6.62,0,0,1,1.16.51,5,5,0,0,1,.78.53c.19.18.29.29.29.35a4,4,0,0,1,.06-.67,5.34,5.34,0,0,0,0-.69h2V18.1h2.2v2.29h-4.31V19.23a1.29,1.29,0,0,1-.29.32,4.32,4.32,0,0,1-.74.48,6.2,6.2,0,0,1-1.14.43,5.43,5.43,0,0,1-1.51.19,5.88,5.88,0,0,1-2.29-.45A5.76,5.76,0,0,1,123.36,19a5.92,5.92,0,0,1-1.23-1.81A5.4,5.4,0,0,1,121.68,15Zm2.4,0a3.41,3.41,0,1,0,6.81,0,3.25,3.25,0,0,0-.95-2.39,3.68,3.68,0,0,0-4.91,0A3.25,3.25,0,0,0,124.08,14.94Z" fill="#231f20"/><path d="M146.35,18.1h2.23V13.59a2,2,0,0,0-2.17-2,3.83,3.83,0,0,0-1.43.27,3.63,3.63,0,0,0-1.21.73,3.87,3.87,0,0,0-.84,1.11,3.09,3.09,0,0,0-.31,1.4v3h1.82v2.29H138V18.1h2.2V11.82H138.3V9.53h4v.26c0,.46.07.88.1,1.26s.06.79.1,1.26a4.76,4.76,0,0,1,1.87-2.22,5.18,5.18,0,0,1,2.85-.82,3.82,3.82,0,0,1,2.69.9A3.19,3.19,0,0,1,151,12.51V18.1h1.79v2.29h-6.43Z" fill="#231f20"/><path d="M156.81,2.46h2.4V9.53h2.84v2.34h-2.84V18.1h2.17v2.29h-4.57V11.87h-2.44V9.53h2.44Z" fill="#231f20"/><path d="M96.89,29.44h3.24v2.29H97.61v15.7h2.52v2.29h-7V47.43h2.09V36.1c0-.15,0-.3,0-.46s0-.31,0-.46c-.16.21-.31.43-.47.66s-.31.46-.46.67c-1.16,1.64-2.38,3.25-3.64,4.82S88.22,44.49,87,46.1L79.25,36l-.52-.78c0,.15,0,.31,0,.46s0,.31,0,.46V47.43H80.9v2.29h-7V47.43h2.52V31.73H73.89V29.44h3.25q2.49,3.22,4.93,6.42T87,42.27q2.49-3.21,4.94-6.41Z" fill="#231f20"/><path d="M102.65,47.43h2V41.14h-2V38.86h4.43v8.57h2v2.29h-6.43Zm1.77-12.77a1.43,1.43,0,0,1,.46-1.1,1.5,1.5,0,0,1,1-.44,1.47,1.47,0,0,1,1,.44,1.43,1.43,0,0,1,.46,1.1,1.39,1.39,0,0,1-.46,1.08,1.49,1.49,0,0,1-1,.42,1.52,1.52,0,0,1-1-.42A1.39,1.39,0,0,1,104.42,34.66Z" fill="#231f20"/><path d="M120,47.43h2.23V42.92a2.23,2.23,0,0,0-.57-1.35,2.19,2.19,0,0,0-1.6-.63,4.13,4.13,0,0,0-1.44.26,3.89,3.89,0,0,0-1.2.74,3.62,3.62,0,0,0-.84,1.1,3.17,3.17,0,0,0-.32,1.41v3h1.83v2.29h-6.43V47.43h2.2V41.14h-1.91V38.86h4v.26c0,.46.08.88.1,1.26s.07.79.11,1.26A4.74,4.74,0,0,1,118,39.42a5.19,5.19,0,0,1,2.86-.82,3.88,3.88,0,0,1,2.69.89,3.2,3.2,0,0,1,1,2.35v5.59h1.8v2.29H120Z" fill="#231f20"/><path d="M129,47.43h2V41.14h-2V38.86h4.43v8.57h2v2.29H129Zm1.76-12.77a1.44,1.44,0,0,1,.47-1.1,1.48,1.48,0,0,1,1-.44,1.56,1.56,0,0,1,1.48,1.54,1.39,1.39,0,0,1-.47,1.08,1.47,1.47,0,0,1-1,.42,1.5,1.5,0,0,1-1-.42A1.39,1.39,0,0,1,130.71,34.66Z" fill="#231f20"/><path d="M154.66,47.43h2.2V42.92a2.16,2.16,0,0,0-.56-1.35,2.22,2.22,0,0,0-1.61-.63,4,4,0,0,0-1.43.26,3.89,3.89,0,0,0-1.2.74,3.62,3.62,0,0,0-.84,1.1,3,3,0,0,0-.32,1.41v3h1.82v2.29h-6.43V47.43h2.21V42.92a2.06,2.06,0,0,0-2.18-2,4,4,0,0,0-1.43.26,3.89,3.89,0,0,0-1.2.74,3.62,3.62,0,0,0-.84,1.1,3.17,3.17,0,0,0-.32,1.41v3h1.82v2.29h-6.43V47.43h2.21V41.14h-1.92V38.86h4v.26c0,.46.07.88.1,1.26s.06.79.1,1.26a4.88,4.88,0,0,1,1.84-2.19,5.48,5.48,0,0,1,2.88-.85,3.94,3.94,0,0,1,2.57.79,3.19,3.19,0,0,1,1.14,2.1,4.79,4.79,0,0,1,1.85-2.08,5.47,5.47,0,0,1,2.81-.81,3.91,3.91,0,0,1,2.7.89,3.24,3.24,0,0,1,1,2.35v5.59h1.82v2.29h-6.43Z" fill="#231f20"/><path d="M163.24,44.3a5.4,5.4,0,0,1,.44-2.17,5.75,5.75,0,0,1,1.24-1.83,5.84,5.84,0,0,1,1.85-1.24,5.68,5.68,0,0,1,2.29-.46,4.18,4.18,0,0,1,1.44.23,7.08,7.08,0,0,1,1.16.5,4.71,4.71,0,0,1,.78.54c.2.17.29.29.29.35a4,4,0,0,1,.06-.67,4,4,0,0,0,.06-.69h2v8.57h2.2v2.29h-4.32V48.56a1.1,1.1,0,0,1-.29.32,3.7,3.7,0,0,1-.73.47,6,6,0,0,1-1.15.44,5.69,5.69,0,0,1-1.5.19,5.85,5.85,0,0,1-2.29-.45,5.65,5.65,0,0,1-1.85-1.23,5.78,5.78,0,0,1-1.24-1.81A5.43,5.43,0,0,1,163.24,44.3Zm2.4,0a3.4,3.4,0,1,0,6.8,0,3.24,3.24,0,0,0-.94-2.39,3.69,3.69,0,0,0-4.92,0A3.24,3.24,0,0,0,165.64,44.27Z" fill="#231f20"/><path d="M179.6,47.43h2.2V30.28h-1.91V28h4.31V47.43H186v2.29H179.6Z" fill="#231f20"/><path d="M188.58,47.43h2V41.14h-2V38.86H193v8.57h2v2.29h-6.42Zm1.76-12.77a1.46,1.46,0,0,1,.46-1.1,1.5,1.5,0,0,1,1-.44,1.47,1.47,0,0,1,1,.44,1.43,1.43,0,0,1,.46,1.1,1.39,1.39,0,0,1-.46,1.08,1.49,1.49,0,0,1-1,.42,1.53,1.53,0,0,1-1-.42A1.42,1.42,0,0,1,190.34,34.66Z" fill="#231f20"/><path d="M199.84,46.24v1.13a2.64,2.64,0,0,0,.69.19,6.47,6.47,0,0,0,.83,0h.22a1.34,1.34,0,0,0,.43-.12,1.48,1.48,0,0,0,.42-.3,1,1,0,0,0,.22-.61.94.94,0,0,0-.29-.8,2.82,2.82,0,0,0-.83-.46c-.34-.13-.72-.25-1.12-.38a4.84,4.84,0,0,1-1.16-.52,2.58,2.58,0,0,1-.88-.94,3.14,3.14,0,0,1-.35-1.62,3,3,0,0,1,.34-1.51,3.53,3.53,0,0,1,.87-1,3.62,3.62,0,0,1,1.13-.56,3.89,3.89,0,0,1,1.1-.17,4.9,4.9,0,0,1,.71,0,4.68,4.68,0,0,1,.86.21,4.87,4.87,0,0,1,.85.37,3,3,0,0,1,.74.58v2.52h-2.14V41.09a2.76,2.76,0,0,0-.88-.15,1.29,1.29,0,0,0-.94.28.79.79,0,0,0,.2,1.3,6.79,6.79,0,0,0,.89.42c.34.13.7.29,1.09.46a5.34,5.34,0,0,1,1.08.65,3,3,0,0,1,1.13,2.48,3.73,3.73,0,0,1-.16,1,3.41,3.41,0,0,1-.56,1.13,3.28,3.28,0,0,1-1.13.92,4.08,4.08,0,0,1-1.88.38,7.37,7.37,0,0,1-2.06-.28,3.15,3.15,0,0,1-1.56-.91V46.24Z" fill="#231f20"/><path d="M209.75,31.79h2.4v7.07H215V41.2h-2.84v6.23h2.17v2.29h-4.57V41.2h-2.44V38.86h2.44Z" fill="#231f20"/><path d="M11.52,29.17v-3l2,.95v2.28a12.73,12.73,0,0,0,1.59,1.63,9.08,9.08,0,0,0,2.07,1.34,4.64,4.64,0,0,0,1.29.4,2.31,2.31,0,0,0,1.09,0,1.39,1.39,0,0,0,.76-.59A2.18,2.18,0,0,0,20.63,31,4.4,4.4,0,0,0,20,28.64a8.33,8.33,0,0,0-1.54-1.84,23.8,23.8,0,0,0-2-1.61,16.49,16.49,0,0,1-2-1.71,8.68,8.68,0,0,1-1.57-2.09,5.87,5.87,0,0,1-.65-2.77A4.26,4.26,0,0,1,12.47,17a2.3,2.3,0,0,1,.84-1.15,2.6,2.6,0,0,1,1.57-.4,6.13,6.13,0,0,1,2.39.68c.3.14.64.31,1,.52a11.18,11.18,0,0,1,1.13.73,11.73,11.73,0,0,1,1.22,1,13.52,13.52,0,0,1,1.24,1.4v2.51l-2-.94V19.9A13.17,13.17,0,0,0,18.7,19a8.67,8.67,0,0,0-1.41-.81c-1-.47-1.73-.53-2.2-.19a1.92,1.92,0,0,0-.72,1.67,2.82,2.82,0,0,0,.36,1.41,5.62,5.62,0,0,0,.95,1.24A13.25,13.25,0,0,0,17,23.52c.51.39,1,.8,1.54,1.22s1,.88,1.54,1.36a9.38,9.38,0,0,1,1.35,1.6,8.45,8.45,0,0,1,.95,1.93A7.33,7.33,0,0,1,22.76,32a3.63,3.63,0,0,1-.43,1.88,2.41,2.41,0,0,1-1.15,1,3.38,3.38,0,0,1-1.71.2,6.41,6.41,0,0,1-2-.61,12.62,12.62,0,0,1-1.9-1.1A15.51,15.51,0,0,1,13.83,32a14.17,14.17,0,0,1-1.37-1.46A7.66,7.66,0,0,1,11.52,29.17Z" fill="#231f20"/><path d="M58,12.18l2.87-1.34v2l-2.23,1V27.82l2.23-1v2l-6.21,2.9v-2l1.85-.86v-10c0-.15,0-.29,0-.43s0-.28,0-.43c-.14.25-.28.51-.41.78l-.41.78c-1,1.94-2.11,3.86-3.23,5.78S50.3,29.1,49.22,31l-6.87-5.78-.46-.47c0,.12,0,.26,0,.39s0,.26,0,.39v10l1.84-.86v2l-6.21,2.9v-2l2.24-1V22.67l-2.24,1v-2l2.88-1.34L44.85,24c1.44,1.22,2.9,2.43,4.37,3.65l4.38-7.73Q55.77,16.06,58,12.18Z" fill="#231f20"/><path d="M33.18,50,66.37,34.5V0L33.18,15.47,0,0V34.5L33.18,50m-31-16.87V3.43l29.9,14V47.06Zm62,0-29.9,14V17.38L64.18,3.43Z" fill="#231f20"/></svg>