<svg width="30" height="31" viewBox="0 0 30 31" fill="none" xmlns="http://www.w3.org/2000/svg">
<path fill-rule="evenodd" clip-rule="evenodd" d="M0 6.2C0 4.55566 0.632141 2.97866 1.75736 1.81594C2.88258 0.653212 4.4087 0 6 0H24C25.5913 0 27.1174 0.653212 28.2426 1.81594C29.3679 2.97866 30 4.55566 30 6.2V24.8C30 26.4443 29.3679 28.0213 28.2426 29.1841C27.1174 30.3468 25.5913 31 24 31H6C4.4087 31 2.88258 30.3468 1.75736 29.1841C0.632141 28.0213 0 26.4443 0 24.8V6.2ZM6 3.1C5.20435 3.1 4.44129 3.42661 3.87868 4.00797C3.31607 4.58933 3 5.37783 3 6.2V24.8C3 25.6222 3.31607 26.4107 3.87868 26.992C4.44129 27.5734 5.20435 27.9 6 27.9H24C24.7956 27.9 25.5587 27.5734 26.1213 26.992C26.6839 26.4107 27 25.6222 27 24.8V6.2C27 5.37783 26.6839 4.58933 26.1213 4.00797C25.5587 3.42661 24.7956 3.1 24 3.1H6ZM15 10.85C13.8065 10.85 12.6619 11.3399 11.818 12.212C10.9741 13.084 10.5 14.2667 10.5 15.5C10.5 16.7333 10.9741 17.916 11.818 18.788C12.6619 19.6601 13.8065 20.15 15 20.15C16.1935 20.15 17.3381 19.6601 18.182 18.788C19.0259 17.916 19.5 16.7333 19.5 15.5C19.5 14.2667 19.0259 13.084 18.182 12.212C17.3381 11.3399 16.1935 10.85 15 10.85ZM7.5 15.5C7.5 13.4446 8.29018 11.4733 9.6967 10.0199C11.1032 8.56651 13.0109 7.75 15 7.75C16.9891 7.75 18.8968 8.56651 20.3033 10.0199C21.7098 11.4733 22.5 13.4446 22.5 15.5C22.5 17.5554 21.7098 19.5267 20.3033 20.9801C18.8968 22.4335 16.9891 23.25 15 23.25C13.0109 23.25 11.1032 22.4335 9.6967 20.9801C8.29018 19.5267 7.5 17.5554 7.5 15.5ZM23.25 9.3C23.8467 9.3 24.419 9.05505 24.841 8.61902C25.2629 8.183 25.5 7.59163 25.5 6.975C25.5 6.35837 25.2629 5.767 24.841 5.33098C24.419 4.89495 23.8467 4.65 23.25 4.65C22.6533 4.65 22.081 4.89495 21.659 5.33098C21.2371 5.767 21 6.35837 21 6.975C21 7.59163 21.2371 8.183 21.659 8.61902C22.081 9.05505 22.6533 9.3 23.25 9.3Z" fill="#272727"/>
</svg>
