<?xml version="1.0" encoding="UTF-8"?><svg id="Logo" xmlns="http://www.w3.org/2000/svg" viewBox="0 0 216 113.02"><path id="backdrop" d="m134.59,28.21c1.36,1.32,2.04,2.89,2.04,4.72v24.72c0,2.06-.74,3.83-2.21,5.32-1.42,1.49-3.18,2.23-5.28,2.23h-5.28l.09-38.88,5.96-.09c1.82-.06,3.38.6,4.69,1.97ZM216,0v113.02H0V0h216ZM69,59.28c0,3.15.74,6.04,2.21,8.67,1.53,2.63,3.58,4.75,6.13,6.35,2.56,1.54,5.34,2.32,8.35,2.32s5.93-.77,8.43-2.32c2.56-1.54,4.57-3.63,6.05-6.27,1.53-2.63,2.3-5.55,2.3-8.75l-.17-42.91c0-.23-.11-.34-.34-.34h-9.54c-.23,0-.34.11-.34.34v42.91c0,1.95-.62,3.6-1.87,4.98-1.19,1.32-2.7,1.97-4.51,1.97s-3.27-.66-4.52-1.97c-1.19-1.37-1.79-3.03-1.79-4.98V16.36c0-.23-.11-.34-.34-.34h-9.54c-.23,0-.34.11-.34.34l-.17,42.91Zm-7.13-13.51c0-.86-.33-1.54-.99-2.06L27.58,16.09c-.25-.26-.53-.21-.86.13l-6.04,7.84c-.25.51-.29.86-.12,1.03l24.67,20.81-25.53,21.58c-.25.26-.25.6,0,1.03l6.17,7.84c.33.34.62.39.86.13l34.17-28.39c.66-.69.99-1.46.99-2.31Zm42.37,40.06h-35.31v10.71h35.31v-10.71Zm42.71-52.82c0-3.15-.77-6.01-2.3-8.58-1.53-2.63-3.61-4.72-6.22-6.27-2.56-1.54-5.4-2.29-8.52-2.23l-15.93.09c-.23,0-.34.11-.34.34l-.17,58.96c0,.29.14.43.43.43l15.25-.09c3.35-.06,6.36-.89,9.03-2.49,2.67-1.6,4.8-3.75,6.39-6.44,1.59-2.75,2.39-5.78,2.39-9.1v-24.63Zm49.55,42.31l-.17-58.96c0-.23-.11-.34-.34-.34h-10.48c-.23,0-.43.11-.6.34l-7.75,11.33-7.75-11.33c-.17-.23-.37-.34-.6-.34h-10.39c-.23,0-.34.11-.34.34l-.17,58.96c0,.29.11.43.34.43h9.63c.23,0,.34-.14.34-.43l.09-43.77,8.86,13.05,8.94-13.05.09,43.77c0,.29.11.43.34.43h9.63c.23,0,.34-.14.34-.43Z" fill="#231f20"/><path id="udm" d="m60.88,43.71c.66.51.99,1.2.99,2.06s-.33,1.63-.99,2.31l-34.17,28.39c-.25.26-.53.21-.86-.13l-6.17-7.84c-.25-.43-.25-.77,0-1.03l25.53-21.58-24.67-20.81c-.16-.17-.12-.51.12-1.03l6.04-7.84c.33-.34.62-.39.86-.13l33.3,27.62Zm8.05,52.83h35.31v-10.71h-35.31v10.71Zm8.42-22.25c2.56,1.54,5.34,2.32,8.35,2.32s5.93-.77,8.43-2.32c2.56-1.54,4.57-3.63,6.05-6.27,1.53-2.63,2.3-5.55,2.3-8.75l-.17-42.91c0-.23-.11-.34-.34-.34h-9.54c-.23,0-.34.11-.34.34v42.91c0,1.95-.62,3.6-1.87,4.98-1.19,1.32-2.7,1.97-4.51,1.97s-3.27-.66-4.52-1.97c-1.19-1.37-1.79-3.03-1.79-4.98V16.36c0-.23-.11-.34-.34-.34h-9.54c-.23,0-.34.11-.34.34l-.17,42.91c0,3.15.74,6.04,2.21,8.67,1.53,2.63,3.58,4.75,6.13,6.35Zm67.3-49.87c1.53,2.57,2.3,5.44,2.3,8.58v24.63c0,3.32-.8,6.35-2.39,9.1-1.59,2.69-3.72,4.84-6.39,6.44-2.67,1.6-5.68,2.43-9.03,2.49l-15.25.09c-.28,0-.43-.14-.43-.43l.17-58.96c0-.23.11-.34.34-.34l15.93-.09c3.12-.06,5.96.69,8.52,2.23,2.61,1.54,4.69,3.63,6.22,6.27Zm-8.01,8.5c0-1.83-.68-3.4-2.04-4.72-1.31-1.37-2.87-2.03-4.69-1.97l-5.96.09-.09,38.88h5.28c2.1,0,3.86-.74,5.28-2.23,1.48-1.49,2.21-3.26,2.21-5.32v-24.72Zm59.35-16.91h-10.48c-.23,0-.43.11-.6.34l-7.75,11.33-7.75-11.33c-.17-.23-.37-.34-.6-.34h-10.39c-.23,0-.34.11-.34.34l-.17,58.96c0,.29.11.43.34.43h9.63c.23,0,.34-.14.34-.43l.09-43.77,8.86,13.05,8.94-13.05.09,43.77c0,.29.11.43.34.43h9.63c.23,0,.34-.14.34-.43l-.17-58.96c0-.23-.11-.34-.34-.34Z" fill="#fff"/></svg>