<svg width="260" height="43" viewBox="0 0 260 43" fill="none" xmlns="http://www.w3.org/2000/svg">
<rect x="1" y="1" width="258" height="40.1527" rx="20.0763" fill="#F5F5F5"/>
<path d="M25.6538 20.5573L24.8682 26.023C24.7863 26.6758 25.1891 27.2843 26.1295 27.2843L31.5952 26.4988C31.8336 26.4671 32.0551 26.3583 32.2259 26.189C32.3133 26.1016 40.8892 17.5334 40.9666 17.4372C44.7749 13.2306 38.7814 7.49156 34.7153 11.1859C34.6191 11.2633 26.0498 19.8403 25.9635 19.9266C25.7942 20.0974 25.6854 20.3189 25.6538 20.5573ZM37.7027 12.2591C37.9925 12.2553 38.2801 12.3092 38.5489 12.4177C38.8176 12.5261 39.0621 12.687 39.2681 12.8909C39.474 13.0948 39.6373 13.3376 39.7485 13.6053C39.8596 13.8729 39.9164 14.16 39.9155 14.4498C39.9162 14.922 39.7606 15.381 39.473 15.7554L36.3971 12.6796C36.7744 12.4 37.2332 12.2523 37.7027 12.2591ZM27.7891 21.2322L34.8039 14.2286L37.924 17.3487L30.9203 24.3634L27.2691 24.8834L27.7891 21.2322Z" fill="#0B0B0B"/>
<path d="M38.8092 22.3331V26.6205C38.8083 27.5006 38.4583 28.3443 37.836 28.9666C37.2137 29.5889 36.37 29.9389 35.4899 29.9398H25.5321C24.6521 29.9389 23.8083 29.5889 23.186 28.9666C22.5637 28.3443 22.2137 27.5006 22.2128 26.6205V16.6627C22.2137 15.7827 22.5637 14.9389 23.186 14.3166C23.8083 13.6943 24.6521 13.3443 25.5321 13.3435H29.9235C30.2169 13.3435 30.4984 13.2269 30.7059 13.0194C30.9133 12.8119 31.0299 12.5305 31.0299 12.237C31.0299 11.9436 30.9133 11.6622 30.7059 11.4547C30.4984 11.2472 30.2169 11.1306 29.9235 11.1306H25.5321C24.0654 11.1324 22.6593 11.7158 21.6223 12.7529C20.5852 13.79 20.0018 15.1961 20 16.6627V26.6205C20.0018 28.0872 20.5852 29.4933 21.6223 30.5304C22.6593 31.5675 24.0654 32.1509 25.5321 32.1526H35.4899C36.9566 32.1509 38.3627 31.5675 39.3998 30.5304C40.4368 29.4933 41.0203 28.0872 41.022 26.6205V22.3331C41.022 22.0397 40.9054 21.7583 40.6979 21.5508C40.4905 21.3433 40.209 21.2267 39.9156 21.2267C39.6221 21.2267 39.3407 21.3433 39.1332 21.5508C38.9257 21.7583 38.8092 22.0397 38.8092 22.3331Z" fill="#0B0B0B"/>
<path fill-rule="evenodd" clip-rule="evenodd" d="M75.1976 11.0764C73.1057 11.0764 71.4099 12.7166 71.4099 14.7399C71.4099 16.7632 73.1057 18.4034 75.1976 18.4034C77.2896 18.4034 78.9854 16.7632 78.9854 14.7399C78.9854 12.7166 77.2896 11.0764 75.1976 11.0764ZM73.0661 14.7399C73.0661 13.6013 74.0204 12.6783 75.1976 12.6783C76.3748 12.6783 77.3292 13.6013 77.3292 14.7399C77.3292 15.8785 76.3748 16.8015 75.1976 16.8015C74.0204 16.8015 73.0661 15.8785 73.0661 14.7399Z" fill="#0B0B0B"/>
<path fill-rule="evenodd" clip-rule="evenodd" d="M90.4844 11.0764C88.3925 11.0764 86.6966 12.7166 86.6966 14.7399C86.6966 16.7632 88.3925 18.4034 90.4844 18.4034C92.5763 18.4034 94.2721 16.7632 94.2721 14.7399C94.2721 12.7166 92.5763 11.0764 90.4844 11.0764ZM88.3529 14.7399C88.3529 13.6013 89.3072 12.6783 90.4844 12.6783C91.6616 12.6783 92.6159 13.6013 92.6159 14.7399C92.6159 15.8785 91.6616 16.8015 90.4844 16.8015C89.3072 16.8015 88.3529 15.8785 88.3529 14.7399Z" fill="#0B0B0B"/>
<path fill-rule="evenodd" clip-rule="evenodd" d="M82.7835 13.9112C80.6916 13.9112 78.9957 15.5514 78.9957 17.5747C78.9957 19.598 80.6916 21.2382 82.7835 21.2382C84.8754 21.2382 86.5713 19.598 86.5713 17.5747C86.5713 15.5514 84.8754 13.9112 82.7835 13.9112ZM80.652 17.5747C80.652 16.4361 81.6063 15.5131 82.7835 15.5131C83.9607 15.5131 84.915 16.4361 84.915 17.5747C84.915 18.7133 83.9607 19.6363 82.7835 19.6363C81.6063 19.6363 80.652 18.7133 80.652 17.5747Z" fill="#0B0B0B"/>
<path d="M75.1976 19.136C71.9631 19.136 69.341 21.6721 69.341 24.8005C69.341 26.701 70.9339 28.2417 72.8989 28.2417H76.4285L76.4174 28.1257C76.4054 28.0009 76.3993 27.8743 76.3993 27.7464C76.3993 27.4116 76.4264 27.0829 76.4785 26.7624L76.4984 26.6398H72.8989C71.8486 26.6398 70.9972 25.8163 70.9972 24.8005C70.9972 22.5568 72.8778 20.7379 75.1976 20.7379C76.7284 20.7379 78.0681 21.5298 78.8023 22.7137L78.8654 22.8154L78.963 22.7435C79.3367 22.4681 79.7423 22.2309 80.1733 22.0381L80.2843 21.9885L80.2213 21.8871C79.1974 20.2391 77.3308 19.136 75.1976 19.136Z" fill="#0B0B0B"/>
<path d="M90.4844 19.136C88.3333 19.136 86.4532 20.2577 85.4351 21.9288L85.3744 22.0283L85.482 22.0784C85.91 22.2775 86.312 22.5206 86.6817 22.8017L86.7813 22.8773L86.8446 22.7713C87.5707 21.5556 88.9289 20.7379 90.4844 20.7379C92.8042 20.7379 94.6848 22.5568 94.6848 24.8005C94.6848 25.8163 93.8334 26.6398 92.7831 26.6398H89.0687L89.0886 26.7624C89.1407 27.0829 89.1678 27.4116 89.1678 27.7464C89.1678 27.8743 89.1616 28.0009 89.1497 28.1257L89.1386 28.2417H92.7831C94.7481 28.2417 96.341 26.701 96.341 24.8005C96.341 21.6721 93.7189 19.136 90.4844 19.136Z" fill="#0B0B0B"/>
<path fill-rule="evenodd" clip-rule="evenodd" d="M82.7835 21.9708C79.549 21.9708 76.9269 24.5068 76.9269 27.6353C76.9269 29.5358 78.5198 31.0764 80.4848 31.0764H85.0823C87.0472 31.0764 88.6402 29.5358 88.6402 27.6353C88.6402 24.5068 86.0181 21.9708 82.7835 21.9708ZM78.5831 27.6353C78.5831 25.3915 80.4637 23.5727 82.7835 23.5727C85.1033 23.5727 86.9839 25.3915 86.9839 27.6353C86.9839 28.6511 86.1325 29.4745 85.0823 29.4745H80.4848C79.4345 29.4745 78.5831 28.6511 78.5831 27.6353Z" fill="#0B0B0B"/>
<path d="M144.155 29.98L140.19 25.838C141.469 24.1304 142.163 22.0218 142.161 19.851C142.161 17.9178 141.613 16.028 140.588 14.4206C139.563 12.8131 138.106 11.5603 136.401 10.8205C134.696 10.0807 132.82 9.88708 131.01 10.2642C129.2 10.6414 127.538 11.5723 126.233 12.9393C124.928 14.3063 124.039 16.048 123.679 17.9441C123.319 19.8402 123.504 21.8056 124.21 23.5916C124.916 25.3777 126.112 26.9043 127.647 27.9784C129.181 29.0524 130.985 29.6257 132.83 29.6257C134.902 29.6284 136.915 28.9011 138.545 27.5608L142.499 31.715C142.607 31.8295 142.736 31.9204 142.878 31.9824C143.02 32.0445 143.173 32.0764 143.327 32.0764C143.481 32.0764 143.633 32.0445 143.775 31.9824C143.917 31.9204 144.046 31.8295 144.155 31.715C144.264 31.6014 144.351 31.4663 144.41 31.3174C144.469 31.1685 144.5 31.0088 144.5 30.8475C144.5 30.6862 144.469 30.5265 144.41 30.3776C144.351 30.2287 144.264 30.0936 144.155 29.98ZM125.832 19.851C125.832 18.4011 126.243 16.9838 127.012 15.7782C127.781 14.5726 128.874 13.633 130.152 13.0781C131.431 12.5233 132.838 12.3781 134.195 12.6609C135.553 12.9438 136.8 13.642 137.778 14.6673C138.757 15.6925 139.423 16.9988 139.693 18.4208C139.964 19.8429 139.825 21.3169 139.295 22.6565C138.766 23.996 137.869 25.141 136.718 25.9465C135.567 26.7521 134.214 27.182 132.83 27.182C130.974 27.182 129.194 26.4096 127.882 25.0348C126.57 23.66 125.832 21.7953 125.832 19.851Z" fill="#0B0B0B"/>
<path d="M182.723 22.1678C183.333 22.1678 183.827 21.6736 183.827 21.064C183.827 20.4544 183.333 19.9602 182.723 19.9602C182.114 19.9602 181.62 20.4544 181.62 21.064C181.62 21.6736 182.114 22.1678 182.723 22.1678Z" fill="#0B0B0B"/>
<path d="M187.139 22.1678C187.748 22.1678 188.243 21.6736 188.243 21.064C188.243 20.4544 187.748 19.9602 187.139 19.9602C186.529 19.9602 186.035 20.4544 186.035 21.064C186.035 21.6736 186.529 22.1678 187.139 22.1678Z" fill="#0B0B0B"/>
<path d="M178.308 22.1678C178.918 22.1678 179.412 21.6736 179.412 21.064C179.412 20.4544 178.918 19.9602 178.308 19.9602C177.699 19.9602 177.204 20.4544 177.204 21.064C177.204 21.6736 177.699 22.1678 178.308 22.1678Z" fill="#0B0B0B"/>
<path d="M190.527 13.2602C188.716 11.4372 186.326 10.3033 183.768 10.0538C181.211 9.80442 178.646 10.4551 176.517 11.8938C174.388 13.3325 172.827 15.4689 172.104 17.9349C171.382 20.4008 171.542 23.0417 172.557 25.4022C172.663 25.6216 172.698 25.8686 172.657 26.1086L171.685 30.7778C171.648 30.9568 171.656 31.1423 171.708 31.3176C171.76 31.493 171.854 31.6526 171.983 31.7823C172.089 31.8873 172.215 31.9697 172.353 32.0247C172.492 32.0798 172.64 32.1062 172.789 32.1024H173.01L177.734 31.1531C177.974 31.1242 178.218 31.1585 178.441 31.2524C180.801 32.268 183.442 32.4281 185.908 31.7053C188.374 30.9824 190.51 29.4218 191.949 27.2926C193.388 25.1634 194.038 22.5989 193.789 20.0414C193.54 17.4838 192.406 15.0934 190.583 13.2823L190.527 13.2602ZM191.444 22.4881C191.228 23.806 190.716 25.0579 189.946 26.1494C189.177 27.2409 188.17 28.1436 187.001 28.7897C185.832 29.4357 184.532 29.8082 183.198 29.8792C181.865 29.9501 180.532 29.7177 179.302 29.1993C178.865 29.0137 178.396 28.9161 177.922 28.9123C177.715 28.9138 177.508 28.9322 177.304 28.9675L174.191 29.5967L174.82 26.4839C174.945 25.8098 174.865 25.1136 174.588 24.486C174.07 23.2552 173.838 21.9229 173.908 20.5893C173.979 19.2557 174.352 17.9555 174.998 16.7867C175.644 15.6179 176.547 14.6108 177.638 13.8413C178.73 13.0718 179.982 12.5598 181.3 12.344C182.683 12.117 184.101 12.2226 185.435 12.652C186.769 13.0815 187.983 13.8226 188.974 14.8138C189.965 15.8051 190.706 17.0182 191.136 18.3527C191.565 19.6872 191.671 21.1047 191.444 22.4881Z" fill="#0B0B0B"/>
<path d="M239.21 23.5229C238.911 23.2081 238.675 22.8336 238.514 22.4211C238.353 22.0086 238.271 21.5664 238.272 21.1199V18.3247C238.272 16.1371 237.453 14.0391 235.995 12.4923C234.538 10.9454 232.561 10.0764 230.5 10.0764C228.438 10.0764 226.461 10.9454 225.004 12.4923C223.546 14.0391 222.727 16.1371 222.727 18.3247V21.1199C222.728 21.5664 222.646 22.0086 222.485 22.4211C222.324 22.8336 222.088 23.2081 221.79 23.5229C221.413 23.923 221.156 24.4326 221.052 24.9875C220.948 25.5424 221.001 26.1175 221.205 26.6402C221.409 27.1629 221.755 27.6096 222.198 27.9239C222.641 28.2382 223.162 28.406 223.695 28.4059H226.268C226.466 29.4418 226.996 30.3731 227.767 31.042C228.538 31.711 229.504 32.0764 230.5 32.0764C231.496 32.0764 232.461 31.711 233.232 31.042C234.003 30.3731 234.533 29.4418 234.731 28.4059H237.305C237.838 28.406 238.359 28.2382 238.802 27.9239C239.245 27.6096 239.591 27.1629 239.795 26.6402C239.999 26.1175 240.052 25.5424 239.948 24.9875C239.844 24.4326 239.587 23.923 239.21 23.5229H239.21ZM230.5 30.2389C229.966 30.2365 229.445 30.0592 229.01 29.7311C228.575 29.403 228.246 28.9401 228.068 28.4059H232.931C232.753 28.9401 232.424 29.403 231.989 29.7311C231.554 30.0592 231.033 30.2365 230.5 30.2389ZM237.304 26.573H223.695C223.504 26.5731 223.317 26.5129 223.157 26.4C222.998 26.2871 222.874 26.1266 222.801 25.9388C222.727 25.751 222.708 25.5444 222.745 25.345C222.783 25.1456 222.875 24.9625 223.011 24.8188C223.47 24.3342 223.834 23.7577 224.082 23.1228C224.329 22.4879 224.456 21.8072 224.455 21.1199V18.3247C224.455 16.6232 225.091 14.9915 226.225 13.7884C227.359 12.5853 228.896 11.9094 230.5 11.9094C232.103 11.9094 233.64 12.5853 234.774 13.7884C235.908 14.9915 236.545 16.6232 236.545 18.3247V21.1199C236.543 21.8072 236.67 22.4879 236.918 23.1228C237.165 23.7577 237.529 24.3342 237.989 24.8188C238.124 24.9625 238.216 25.1456 238.254 25.345C238.291 25.5444 238.272 25.751 238.199 25.9388C238.125 26.1266 238.001 26.2871 237.842 26.4C237.683 26.5129 237.495 26.5731 237.304 26.573Z" fill="#0B0B0B"/>
<rect x="1" y="1" width="258" height="40.1527" rx="20.0763" stroke="#0B0B0B" stroke-width="2"/>
</svg>
